# Wavefront Obj file
# 
# verts: 131 uv-s: 251
mtllib req_grave.mtl

g Cube.001
#pivot 0.000000 0.000000 0.000000

v 0.649716 -1.661704 -0.644189
v 0.696477 -1.661704 -0.597427
v 0.649716 -1.708466 -0.597427
v 0.696477 -1.661704 0.597427
v 0.649716 -1.661704 0.644189
v 0.649716 -1.708466 0.597427
v -0.649716 -1.661704 -0.644189
v -0.649716 -1.708466 -0.597427
v -0.696477 -1.661704 -0.597427
v -0.649716 -1.661704 0.644189
v -0.696477 -1.661704 0.597427
v -0.649716 -1.708466 0.597427
v 0.649716 1.661704 -0.644189
v 0.649716 1.708466 -0.597427
v 0.696477 1.661704 -0.597427
v 0.649716 1.661704 0.644189
v 0.696477 1.661704 0.597427
v 0.649716 1.708466 0.597427
v -0.649716 1.661704 -0.644189
v -0.696477 1.661704 -0.597427
v -0.649716 1.708466 -0.597427
v -0.649716 1.661704 0.644189
v -0.649716 1.708466 0.597427
v -0.696477 1.661704 0.597427
v -0.415417 1.230277 3.975872
v -0.415417 1.230277 0.755489
v -0.415417 -1.230277 3.976556
v -0.415417 -1.230277 0.755489
v -0.415417 0.001729 5.193441
v -0.415417 0.628733 5.056387
v -0.415417 -0.635318 5.047931
v -0.415417 -0.937933 4.838450
v -0.415417 0.924841 4.858370
v -0.415417 -1.082930 4.630967
v -0.415417 1.074955 4.644461
v -0.415417 -1.149619 4.484506
v -0.415417 1.145665 4.491013
v -0.415417 -0.320468 5.145041
v -0.415417 0.312678 5.150981
v -0.312761 1.392273 4.566569
v -0.312761 1.485870 3.996723
v -0.312761 -0.377438 5.394944
v -0.312761 0.000000 5.451642
v -0.312761 0.366937 5.401537
v -0.312761 0.738854 5.290224
v -0.312761 -1.121147 5.022481
v -0.312761 -0.748352 5.280541
v -0.312761 -1.305843 4.758189
v -0.312761 1.106623 5.044284
v -0.312761 -1.396610 4.558851
v -0.312761 1.297429 4.772390
v -0.312761 -1.485870 3.996723
v 0.415417 1.409932 3.990528
v 0.415417 -1.409932 3.990731
v 0.415417 0.000514 5.374929
v 0.415417 0.706137 5.220750
v 0.415417 -0.714769 5.211432
v 0.415417 -1.066713 4.967805
v 0.415417 1.052615 4.989048
v 0.415417 -1.239615 4.720391
v 0.415417 1.231331 4.734382
v 0.415417 -1.323228 4.536763
v 0.415417 1.319005 4.544121
v 0.415417 -0.360512 5.320697
v 0.415417 0.350816 5.327096
v 0.312761 1.392273 4.566569
v 0.312761 1.485870 3.996723
v 0.312761 -0.377438 5.394944
v 0.312761 0.000000 5.451642
v 0.312761 0.366937 5.401537
v 0.312761 0.738854 5.290224
v 0.312761 -1.121147 5.022481
v 0.312761 -0.748352 5.280541
v 0.312761 -1.305843 4.758189
v 0.312761 1.106623 5.044284
v 0.312761 -1.396610 4.558851
v 0.312761 1.297429 4.772390
v 0.312761 -1.485870 3.996723
v 0.000000 1.485870 3.996723
v 0.000000 -1.485870 3.996723
v 0.000000 0.000000 5.451642
v 0.000000 0.738854 5.290224
v 0.000000 -0.748352 5.280541
v 0.000000 -1.121147 5.022481
v 0.000000 1.106623 5.044284
v 0.000000 -1.305843 4.758189
v 0.000000 1.297429 4.772390
v 0.000000 -1.396610 4.558851
v 0.000000 1.392273 4.566569
v 0.000000 -0.377438 5.394944
v 0.000000 0.366937 5.401537
v -0.415417 1.319005 4.544121
v -0.415417 1.409932 3.990528
v -0.415417 -0.360512 5.320697
v -0.415417 0.000514 5.374929
v -0.415417 0.350816 5.327096
v -0.415417 0.706137 5.220750
v -0.415417 -1.066713 4.967805
v -0.415417 -0.714769 5.211432
v -0.415417 -1.239615 4.720391
v -0.415417 1.052615 4.989048
v -0.415417 -1.323228 4.536763
v -0.415417 1.231331 4.734382
v -0.415417 -1.409932 3.990731
v -0.246888 1.145665 4.491013
v -0.246888 1.230277 3.975872
v -0.246888 -0.320468 5.145041
v -0.246888 0.001729 5.193441
v -0.246888 0.312678 5.150981
v -0.246888 0.628733 5.056387
v -0.246888 -0.937933 4.838450
v -0.246888 -0.635318 5.047931
v -0.246888 -1.082930 4.630967
v -0.246888 0.924841 4.858370
v -0.246888 -1.149619 4.484506
v -0.246888 1.074955 4.644461
v -0.246888 -1.230277 3.976556
v -0.246888 1.230277 0.755489
v -0.246888 -1.230277 0.755489
v 0.312761 -1.485870 0.644189
v -0.312761 -1.485870 0.644189
v 0.000000 -1.485870 0.644189
v -0.415417 -1.341578 0.644189
v 0.415417 -1.409932 0.644189
v -0.415417 -1.409932 0.644189
v 0.415417 1.409932 0.644189
v -0.312761 1.485870 0.644189
v 0.312761 1.485870 0.644189
v 0.000000 1.485870 0.644189
v -0.415417 1.341578 0.644189
v -0.415417 1.409932 0.644189
# 131 positions

vt 0.007006 0.762349
vt 0.007006 0.624349
vt 0.390843 0.624349
vt 0.390843 0.762349
vt 0.854936 0.511403
vt 0.992681 0.511403
vt 0.992681 0.661481
vt 0.854936 0.661481
vt 0.356361 0.799809
vt 0.385439 0.772749
vt 0.385439 0.922826
vt 0.356361 0.895766
vt 0.365131 0.883910
vt 0.365131 0.847788
vt 0.365131 0.811665
vt 0.348466 0.895766
vt 0.001605 0.922826
vt 0.001605 0.772749
vt 0.030683 0.799809
vt 0.021913 0.811665
vt 0.021913 0.847787
vt 0.021913 0.883910
vt 0.030683 0.895766
vt 0.038578 0.895766
vt 0.797301 0.688697
vt 0.935069 0.688697
vt 0.935069 0.838774
vt 0.797301 0.838774
vt 0.404853 0.832838
vt 0.404853 0.694839
vt 0.788690 0.694839
vt 0.788690 0.832838
vt 0.390843 0.767749
vt 0.396244 0.762349
vt 0.935381 0.683296
vt 0.940773 0.688697
vt 0.404853 0.838239
vt 0.399453 0.832838
vt 0.940773 0.838774
vt 0.935381 0.844175
vt 0.764238 0.186458
vt 0.764238 0.181034
vt 0.769638 0.186434
vt 0.998400 0.661481
vt 0.993009 0.666882
vt 0.614160 0.186458
vt 0.608759 0.186434
vt 0.614160 0.181034
vt 0.998400 0.511403
vt 0.993009 0.506002
vt 0.614160 0.570291
vt 0.764238 0.570291
vt 0.764238 0.575669
vt 0.614160 0.575669
vt 0.396244 0.624349
vt 0.399453 0.694839
vt 0.788690 0.838239
vt 0.404853 0.689438
vt 0.788690 0.689438
vt 0.794091 0.694839
vt 0.794091 0.832838
vt 0.001605 0.762349
vt 0.001605 0.624349
vt 0.007006 0.767749
vt 0.007006 0.618948
vt 0.390843 0.618948
vt 0.902911 0.001605
vt 0.902911 0.388156
vt 0.866789 0.388156
vt 0.866789 0.001605
vt 0.996228 0.372931
vt 0.996228 0.430922
vt 0.976764 0.430922
vt 0.976764 0.372931
vt 0.774947 0.843247
vt 0.839404 0.843247
vt 0.841478 0.855103
vt 0.775128 0.855103
vt 0.663928 0.097554
vt 0.622207 0.097554
vt 0.620286 0.085698
vt 0.663904 0.085698
vt 0.745353 0.097554
vt 0.704364 0.097554
vt 0.706260 0.085698
vt 0.749163 0.085698
vt 0.581243 0.097554
vt 0.540484 0.097554
vt 0.534222 0.085698
vt 0.577395 0.085698
vt 0.854933 0.502926
vt 0.854933 0.473243
vt 0.866789 0.477158
vt 0.866789 0.508866
vt 0.785264 0.097554
vt 0.791527 0.085698
vt 0.854933 0.451511
vt 0.866789 0.453567
vt 0.861953 0.843247
vt 0.892566 0.843247
vt 0.898555 0.855103
vt 0.865871 0.855103
vt 0.854933 0.387973
vt 0.389176 0.843247
vt 0.388643 0.855103
vt 0.854933 0.002112
vt 0.865871 0.891225
vt 0.841478 0.891225
vt 0.902911 0.453567
vt 0.902911 0.477158
vt 0.898555 0.891225
vt 0.902911 0.508866
vt 0.577395 0.049576
vt 0.620286 0.049576
vt 0.534222 0.049576
vt 0.749163 0.049576
vt 0.791527 0.049576
vt 0.706260 0.049576
vt 0.663904 0.049576
vt 0.775128 0.891225
vt 0.388643 0.891225
vt 0.939034 0.001605
vt 0.939034 0.388156
vt 0.542452 0.123922
vt 0.547976 0.164380
vt 0.541713 0.206076
vt 0.529093 0.246991
vt 0.500955 0.287639
vt 0.472380 0.307608
vt 0.451172 0.317265
vt 0.388108 0.327279
vt 0.001599 0.327279
vt 0.001599 0.001599
vt 0.388084 0.001599
vt 0.452022 0.012101
vt 0.473996 0.022227
vt 0.503409 0.042867
vt 0.530169 0.082884
vt 0.774947 0.939204
vt 0.775128 0.927348
vt 0.841478 0.927348
vt 0.839404 0.939204
vt 0.663928 0.001597
vt 0.663904 0.013453
vt 0.620286 0.013453
vt 0.622207 0.001597
vt 0.745353 0.001597
vt 0.749163 0.013453
vt 0.706260 0.013453
vt 0.704364 0.001597
vt 0.581243 0.001597
vt 0.577395 0.013453
vt 0.534222 0.013453
vt 0.540484 0.001597
vt 0.950890 0.502926
vt 0.939034 0.508866
vt 0.939034 0.477158
vt 0.950890 0.473243
vt 0.785264 0.001597
vt 0.791527 0.013453
vt 0.939034 0.453567
vt 0.950890 0.451511
vt 0.861953 0.939204
vt 0.865871 0.927348
vt 0.898555 0.927348
vt 0.892566 0.939204
vt 0.950890 0.387973
vt 0.388643 0.927348
vt 0.389176 0.939204
vt 0.950890 0.002112
vt 0.830983 0.299916
vt 0.821210 0.240420
vt 0.841230 0.234287
vt 0.851732 0.298224
vt 0.689092 0.159293
vt 0.651879 0.164883
vt 0.647255 0.144596
vt 0.688951 0.138332
vt 0.761507 0.175122
vt 0.725005 0.164197
vt 0.729409 0.143857
vt 0.770447 0.156139
vt 0.615516 0.176099
vt 0.580565 0.200293
vt 0.565692 0.185353
vt 0.606340 0.157215
vt 0.563819 0.224256
vt 0.545722 0.213928
vt 0.795706 0.197992
vt 0.810464 0.182899
vt 0.556117 0.241172
vt 0.536066 0.235136
vt 0.813044 0.222698
vt 0.831104 0.212312
vt 0.546801 0.299837
vt 0.526052 0.298200
vt 0.533946 0.684709
vt 0.546801 0.671854
vt 0.830983 0.671854
vt 0.843837 0.684709
vt 0.851732 0.684709
vt 0.526052 0.684709
vt 0.473161 0.364336
vt 0.497355 0.399286
vt 0.508571 0.435650
vt 0.514161 0.472862
vt 0.509257 0.508775
vt 0.498332 0.545278
vt 0.475462 0.579477
vt 0.450756 0.596814
vt 0.433033 0.604981
vt 0.373537 0.614753
vt 0.001600 0.614753
vt 0.001600 0.330572
vt 0.373617 0.330572
vt 0.432282 0.339887
vt 0.449198 0.347589
vt 0.609861 0.269598
vt 0.609861 0.306834
vt 0.590397 0.306834
vt 0.590397 0.269598
vt 0.954095 0.448967
vt 0.954095 0.431747
vt 0.973559 0.431747
vt 0.973559 0.448967
vt 0.609861 0.342726
vt 0.609861 0.379181
vt 0.590397 0.379181
vt 0.590397 0.342726
vt 0.609861 0.233186
vt 0.590397 0.233186
vt 0.609861 0.198131
vt 0.590397 0.198131
vt 0.829271 0.121463
vt 0.545092 0.121463
vt 0.545092 0.101999
vt 0.829271 0.101999
vt 0.996228 0.447338
vt 0.996228 0.470239
vt 0.976764 0.470239
vt 0.976764 0.447338
vt 0.609861 0.413280
vt 0.590397 0.413280
vt 0.954095 0.372917
vt 0.954095 0.001602
vt 0.973560 0.001602
vt 0.973559 0.372917
vt 0.996228 0.001602
vt 0.976764 0.001602
vt 0.954095 0.472628
vt 0.973559 0.472628
# 251 texture coordinates

vn 1.000000 0.000000 0.000000
vn 0.000000 1.000000 0.000000
vn 0.000000 0.000000 1.000000
vn 0.000000 -1.000000 0.000000
vn -1.000000 0.000000 0.000000
vn 0.577359 -0.577345 -0.577347
vn 0.577359 -0.577345 0.577347
vn -0.577359 -0.577345 -0.577347
vn -0.577359 -0.577345 0.577347
vn 0.577359 0.577345 -0.577347
vn 0.577359 0.577345 0.577347
vn -0.577359 0.577345 -0.577347
vn -0.577359 0.577345 0.577347
vn 0.000000 -0.707106 -0.707108
vn 0.707115 -0.707098 0.000000
vn 0.000000 -0.707106 0.707108
vn -0.707115 -0.707098 0.000000
vn -0.707114 0.000000 -0.707099
vn -0.707114 0.000000 0.707099
vn -0.707115 0.707098 0.000000
vn 0.000000 0.707106 -0.707108
vn 0.000000 0.707106 0.707108
vn 0.707115 0.707098 0.000000
vn 0.707114 0.000000 -0.707099
vn 0.707114 0.000000 0.707099
vn 0.000000 0.000000 -1.000000
vn 0.000000 -0.996902 0.078656
vn 0.000000 0.996902 -0.078657
vn 0.000000 0.957561 -0.288232
vn -0.595978 0.800342 0.065290
vn -0.598189 0.766200 0.234749
vn -0.598614 -0.005364 0.801020
vn -0.595786 -0.178513 0.783053
vn -0.599002 0.341158 0.724436
vn -0.595860 0.169971 0.784895
vn -0.599226 -0.349907 0.720065
vn -0.600799 -0.564002 0.566518
vn -0.596308 -0.697199 0.397908
vn -0.601294 0.558613 0.571312
vn -0.598210 -0.767331 0.230972
vn -0.596263 0.695934 0.400184
vn -0.595897 -0.800573 0.063166
vn -0.594704 0.803945 0.000000
vn -0.594704 -0.803945 0.000000
vn 0.000000 0.956131 0.292941
vn 0.000000 0.866895 0.498492
vn 0.000000 -0.868507 0.495678
vn 0.000000 -0.957560 0.288233
vn 0.000000 0.699116 0.715009
vn 0.000000 -0.705532 0.708678
vn 0.000000 -0.222268 0.974986
vn 0.000000 -0.437067 0.899429
vn 0.000000 0.426050 0.904700
vn 0.000000 0.211647 0.977346
vn 0.000000 -0.006696 0.999978
vn 0.000000 0.996689 0.081308
vn 0.595978 0.800342 0.065290
vn 0.598189 0.766200 0.234749
vn 0.598614 -0.005364 0.801020
vn 0.595786 -0.178513 0.783053
vn 0.599002 0.341158 0.724436
vn 0.595860 0.169971 0.784895
vn 0.599226 -0.349907 0.720065
vn 0.600799 -0.564002 0.566518
vn 0.596308 -0.697199 0.397908
vn 0.601294 0.558613 0.571312
vn 0.598210 -0.767331 0.230972
vn 0.596263 0.695934 0.400184
vn 0.595897 -0.800573 0.063166
vn 0.594704 0.803945 0.000000
vn 0.594704 -0.803945 0.000000
vn 0.000000 0.222267 -0.974986
vn 0.000000 0.006697 -0.999978
vn 0.000000 -0.866895 -0.498492
vn 0.000000 -0.956131 -0.292940
vn 0.000000 -0.211648 -0.977346
vn 0.000000 -0.426049 -0.904700
vn 0.000000 0.437067 -0.899429
vn 0.000000 0.705532 -0.708678
vn 0.000000 0.868507 -0.495677
vn 0.000000 -0.699115 -0.715010
vn 0.000000 -0.996689 -0.081308
# 82 normals

usemtl None
f 15/1/1 17/2/1 4/3/1 2/4/1
f 21/5/2 23/6/2 18/7/2 14/8/2
f 126/9/3 16/10/3 22/11/3 131/12/3 127/13/3 129/14/3 128/15/3
f 130/16/3 131/12/3 22/11/3 10/17/3 5/18/3 16/10/3 126/9/3 124/19/3 120/20/3 122/21/3 121/22/3 125/23/3 123/24/3
f 3/25/4 6/26/4 12/27/4 8/28/4
f 9/29/5 11/30/5 24/31/5 20/32/5
f 1/33/6 2/4/6 3/34/6
f 4/35/7 5/36/7 6/26/7
f 7/37/8 8/38/8 9/29/8
f 10/39/9 11/40/9 12/27/9
f 13/41/10 14/42/10 15/43/10
f 16/44/11 17/45/11 18/7/11
f 19/46/12 20/47/12 21/48/12
f 22/49/13 23/6/13 24/50/13
f 7/51/14 1/52/14 3/53/14 8/54/14
f 2/4/15 4/3/15 6/55/15 3/34/15
f 5/36/16 10/39/16 12/27/16 6/26/16
f 11/30/17 9/29/17 8/38/17 12/56/17
f 19/57/18 7/37/18 9/29/18 20/32/18
f 10/58/19 22/59/19 24/31/19 11/30/19
f 23/60/20 21/61/20 20/32/20 24/31/20
f 13/41/21 19/46/21 21/48/21 14/42/21
f 22/49/22 16/44/22 18/7/22 23/6/22
f 17/2/23 15/1/23 14/62/23 18/63/23
f 1/33/24 13/64/24 15/1/24 2/4/24
f 16/65/25 5/66/25 4/3/25 17/2/25
f 7/51/26 19/46/26 13/41/26 1/52/26
f 122/67/4 80/68/27 52/69/27 121/70/4
f 27/71/28 36/72/29 115/73/29 117/74/28
f 93/75/30 92/76/31 40/77/31 41/78/30
f 95/79/32 94/80/33 42/81/33 43/82/32
f 97/83/34 96/84/35 44/85/35 45/86/34
f 99/87/36 98/88/37 46/89/37 47/90/36
f 98/91/37 100/92/38 48/93/38 46/94/37
f 101/95/39 97/83/34 45/86/34 49/96/39
f 100/92/38 102/97/40 50/98/40 48/93/38
f 103/99/41 101/100/39 49/101/39 51/102/41
f 102/97/40 104/103/42 52/69/42 50/98/40
f 92/76/31 103/99/41 51/102/41 40/77/31
f 94/80/33 99/87/36 47/90/36 42/81/33
f 96/84/35 95/79/32 43/82/32 44/85/35
f 131/104/43 93/75/30 41/78/30 127/105/43
f 104/103/42 125/106/44 121/70/44 52/69/42
f 40/77/45 51/102/46 87/107/46 89/108/45
f 48/93/47 50/98/48 88/109/48 86/110/47
f 51/102/46 49/101/49 85/111/49 87/107/46
f 46/94/50 48/93/47 86/110/47 84/112/50
f 42/81/51 47/90/52 83/113/52 90/114/51
f 47/90/52 46/89/50 84/115/50 83/113/52
f 49/96/49 45/86/53 82/116/53 85/117/49
f 45/86/53 44/85/54 91/118/54 82/116/53
f 44/85/54 43/82/55 81/119/55 91/118/54
f 43/82/55 42/81/51 90/114/51 81/119/55
f 50/98/48 52/69/27 80/68/27 88/109/48
f 41/78/56 40/77/45 89/108/45 79/120/56
f 127/105/2 41/78/56 79/120/56 129/121/2
f 120/122/4 78/123/27 80/68/27 122/67/4
f 65/124/1 55/125/1 64/126/1 57/127/1 58/128/1 60/129/1 62/130/1 54/131/1 124/132/1 126/133/1 53/134/1 63/135/1 61/136/1 59/137/1 56/138/1
f 53/139/57 67/140/57 66/141/58 63/142/58
f 55/143/59 69/144/59 68/145/60 64/146/60
f 56/147/61 71/148/61 70/149/62 65/150/62
f 57/151/63 73/152/63 72/153/64 58/154/64
f 58/155/64 72/156/64 74/157/65 60/158/65
f 59/159/66 75/160/66 71/148/61 56/147/61
f 60/158/65 74/157/65 76/161/67 62/162/67
f 61/163/68 77/164/68 75/165/66 59/166/66
f 62/162/67 76/161/67 78/123/69 54/167/69
f 63/142/58 66/141/58 77/164/68 61/163/68
f 64/146/60 68/145/60 73/152/63 57/151/63
f 65/150/62 70/149/62 69/144/59 55/143/59
f 128/168/70 67/140/57 53/139/57 126/169/70
f 124/170/71 54/167/69 78/123/69 120/122/71
f 66/141/45 89/108/45 87/107/46 77/164/46
f 74/157/47 86/110/47 88/109/48 76/161/48
f 77/164/46 87/107/46 85/111/49 75/165/49
f 72/156/50 84/112/50 86/110/47 74/157/47
f 68/145/51 90/114/51 83/113/52 73/152/52
f 73/152/52 83/113/52 84/115/50 72/153/50
f 75/160/49 85/117/49 82/116/53 71/148/53
f 71/148/53 82/116/53 91/118/54 70/149/54
f 70/149/54 91/118/54 81/119/55 69/144/55
f 69/144/55 81/119/55 90/114/51 68/145/51
f 76/161/48 88/109/48 80/68/27 78/123/27
f 67/140/56 79/120/56 89/108/45 66/141/45
f 129/121/2 79/120/56 67/140/56 128/168/2
f 25/171/5 37/172/5 92/173/5 93/174/5
f 29/175/5 38/176/5 94/177/5 95/178/5
f 30/179/5 39/180/5 96/181/5 97/182/5
f 31/183/5 32/184/5 98/185/5 99/186/5
f 32/184/5 34/187/5 100/188/5 98/185/5
f 33/189/5 30/179/5 97/182/5 101/190/5
f 34/187/5 36/191/5 102/192/5 100/188/5
f 35/193/5 33/189/5 101/190/5 103/194/5
f 36/191/5 27/195/5 104/196/5 102/192/5
f 37/172/5 35/193/5 103/194/5 92/173/5
f 38/176/5 31/183/5 99/186/5 94/177/5
f 123/197/5 28/198/5 26/199/5 130/200/5
f 39/180/5 29/175/5 95/178/5 96/181/5
f 26/199/5 25/171/5 93/174/5 131/201/5 130/200/5
f 27/195/5 28/198/5 123/197/5 125/202/5 104/196/5
f 111/203/5 112/204/5 107/205/5 108/206/5 109/207/5 110/208/5 114/209/5 116/210/5 105/211/5 106/212/5 118/213/5 119/214/5 117/215/5 115/216/5 113/217/5
f 38/218/72 29/219/73 108/220/73 107/221/72
f 35/222/74 37/223/75 105/224/75 116/225/74
f 39/226/76 30/227/77 110/228/77 109/229/76
f 31/230/78 38/218/72 107/221/72 112/231/78
f 32/232/79 31/230/78 112/231/78 111/233/79
f 26/234/3 28/235/3 119/236/3 118/237/3
f 34/238/80 32/239/79 111/240/79 113/241/80
f 29/219/73 39/226/76 109/229/76 108/220/73
f 30/227/77 33/242/81 114/243/81 110/228/77
f 25/244/82 26/245/4 118/246/4 106/247/82
f 36/72/29 34/238/80 113/241/80 115/73/29
f 28/248/2 27/71/28 117/74/28 119/249/2
f 33/250/81 35/222/74 116/225/74 114/251/81
f 37/223/75 25/244/82 106/247/82 105/224/75

# 115 faces
