{
  "accessors": [
    {
      "bufferView": 2,
      "componentType": 5126,
      "count": 410,
      "max": [
        0.27988600730895996,
        0.15154799818992615,
        -0.511326014995575
      ],
      "min": [
        -0.30235201120376587,
        0.02187420055270195,
        -0.9872320294380188
      ],
      "type": "VEC3"
    },
    {
      "bufferView": 2,
      "byteOffset": 4920,
      "componentType": 5126,
      "count": 410,
      "max": [
        0.9993982315063477,
        0.9973536133766174,
        0.9844565391540527
      ],
      "min": [
        -0.9995113611221313,
        -0.9997702240943909,
        -0.9980684518814087
      ],
      "type": "VEC3"
    },
    {
      "bufferView": 3,
      "componentType": 5126,
      "count": 410,
      "max": [
        0.9997140169143677,
        0.9981449842453003,
        0.927823007106781,
        1.0
      ],
      "min": [
        -0.9997990131378174,
        -0.9908930063247681,
        -0.6595289707183838,
        1.0
      ],
      "type": "VEC4"
    },
    {
      "bufferView": 1,
      "componentType": 5126,
      "count": 410,
      "max": [
        0.7766849994659424,
        0.22809000313282013
      ],
      "min": [
        0.6151440143585205,
        0.011952999979257584
      ],
      "type": "VEC2"
    },
    {
      "bufferView": 0,
      "componentType": 5125,
      "count": 1128,
      "type": "SCALAR"
    },
    {
      "bufferView": 2,
      "byteOffset": 9840,
      "componentType": 5126,
      "count": 1990,
      "max": [
        0.3975830078125,
        0.34397798776626587,
        1.0
      ],
      "min": [
        -0.3975830078125,
        -0.34397798776626587,
        -1.0
      ],
      "type": "VEC3"
    },
    {
      "bufferView": 2,
      "byteOffset": 33720,
      "componentType": 5126,
      "count": 1990,
      "max": [
        1.0,
        1.0,
        1.0
      ],
      "min": [
        -1.0,
        -1.0,
        -1.0
      ],
      "type": "VEC3"
    },
    {
      "bufferView": 3,
      "byteOffset": 6560,
      "componentType": 5126,
      "count": 1990,
      "max": [
        1.0,
        1.0,
        1.0,
        1.0
      ],
      "min": [
        -1.0,
        -0.9998610019683838,
        -1.0,
        -1.0
      ],
      "type": "VEC4"
    },
    {
      "bufferView": 1,
      "byteOffset": 3280,
      "componentType": 5126,
      "count": 1990,
      "max": [
        0.9896439909934998,
        0.9994999766349792
      ],
      "min": [
        0.0005000000237487257,
        0.0005000000237487257
      ],
      "type": "VEC2"
    },
    {
      "bufferView": 0,
      "byteOffset": 4512,
      "componentType": 5125,
      "count": 6816,
      "type": "SCALAR"
    }
  ],
  "asset": {
    "extras": {
      "author": "Mathilde Beuvin (https://sketchfab.com/mat_bvn)",
      "license": "CC-BY-4.0 (http://creativecommons.org/licenses/by/4.0/)",
      "source": "https://sketchfab.com/3d-models/hospital-bed-f2b3a71f48d040069fb144f76a1180d9",
      "title": "Hospital bed"
    },
    "generator": "Sketchfab-13.27.0",
    "version": "2.0"
  },
  "bufferViews": [
    {
      "buffer": 0,
      "byteLength": 31776,
      "name": "floatBufferViews",
      "target": 34963
    },
    {
      "buffer": 0,
      "byteLength": 19200,
      "byteOffset": 31776,
      "byteStride": 8,
      "name": "floatBufferViews",
      "target": 34962
    },
    {
      "buffer": 0,
      "byteLength": 57600,
      "byteOffset": 50976,
      "byteStride": 12,
      "name": "floatBufferViews",
      "target": 34962
    },
    {
      "buffer": 0,
      "byteLength": 38400,
      "byteOffset": 108576,
      "byteStride": 16,
      "name": "floatBufferViews",
      "target": 34962
    }
  ],
  "buffers": [
    {
      "byteLength": 146976,
      "uri": "scene.bin"
    }
  ],
  "images": [
    {
      "uri": "textures/DefaultMaterial_baseColor.jpeg"
    },
    {
      "uri": "textures/DefaultMaterial_metallicRoughness.png"
    },
    {
      "uri": "textures/DefaultMaterial_normal.jpeg"
    }
  ],
  "materials": [
    {
      "doubleSided": true,
      "name": "DefaultMaterial",
      "normalTexture": {
        "index": 2
      },
      "pbrMetallicRoughness": {
        "baseColorTexture": {
          "index": 0
        },
        "metallicRoughnessTexture": {
          "index": 1
        }
      }
    }
  ],
  "meshes": [
    {
      "name": "defaultMaterial",
      "primitives": [
        {
          "attributes": {
            "NORMAL": 1,
            "POSITION": 0,
            "TANGENT": 2,
            "TEXCOORD_0": 3
          },
          "indices": 4,
          "material": 0,
          "mode": 4
        }
      ]
    },
    {
      "name": "defaultMaterial",
      "primitives": [
        {
          "attributes": {
            "NORMAL": 6,
            "POSITION": 5,
            "TANGENT": 7,
            "TEXCOORD_0": 8
          },
          "indices": 9,
          "material": 0,
          "mode": 4
        }
      ]
    }
  ],
  "nodes": [
    {
      "children": [
        1
      ],
      "matrix": [
        0.29348719120025635,
        5.145416781637515e-17,
        -0.9559630155563354,
        0.0,
        -0.9559630155563354,
        2.2597950971639096e-16,
        -0.29348719120025635,
        0.0,
        2.0092690887967913e-16,
        1.0,
        1.1551036609054667e-16,
        0.0,
        0.0,
        0.0,
        0.0,
        1.0
      ],
      "name": "Sketchfab_model"
    },
    {
      "children": [
        2,
        4
      ],
      "matrix": [
        1.0,
        0.0,
        0.0,
        0.0,
        0.0,
        -4.371139006309477e-08,
        0.999999999999999,
        0.0,
        0.0,
        -0.999999999999999,
        -4.371139006309477e-08,
        0.0,
        0.0,
        0.0,
        0.0,
        1.0
      ],
      "name": "Collada visual scene group"
    },
    {
      "children": [
        3
      ],
      "name": "oreiller"
    },
    {
      "mesh": 0,
      "name": "defaultMaterial"
    },
    {
      "children": [
        5
      ],
      "name": "Lit_01"
    },
    {
      "mesh": 1,
      "name": "defaultMaterial"
    }
  ],
  "samplers": [
    {
      "magFilter": 9729,
      "minFilter": 9987,
      "wrapS": 10497,
      "wrapT": 10497
    }
  ],
  "scene": 0,
  "scenes": [
    {
      "name": "Sketchfab_Scene",
      "nodes": [
        0
      ]
    }
  ],
  "textures": [
    {
      "sampler": 0,
      "source": 0
    },
    {
      "sampler": 0,
      "source": 1
    },
    {
      "sampler": 0,
      "source": 2
    }
  ]
}
